<?xml version="1.0" encoding="utf-8"?>
<!-- Generator: Adobe Illustrator 24.3.0, SVG Export Plug-In . SVG Version: 6.00 Build 0)  -->
<svg version="1.1" id="레이어_1" xmlns="http://www.w3.org/2000/svg" xmlns:xlink="http://www.w3.org/1999/xlink" x="0px"
	 y="0px" viewBox="0 0 958.9 549.5" style="enable-background:new 0 0 958.9 549.5;" xml:space="preserve">
<rect x="294.9" y="354.9" width="369.2" height="8.5"/>
<path d="M944.9,1.4h-2.8c-9.8,0-14,2.8-14,7.7v230.3c0,4.9,4.2,7.7,14,7.7h2.8c9.8,0,14-2.8,14-7.7V9.1
	C958.9,4.2,954.7,1.4,944.9,1.4 M764,2.1H653.6c-7.4,0-10.5,3.1-10.5,10.5v226.8c0,4.9,4.2,7.7,14,7.7h2.8c9.8,0,14-2.8,14-7.7
	V134.7h83.8c4.9,0,7-3.1,7-10.5v-5.6c0-7.3-2.1-10.5-7-10.5H674V28.6H764c4.9,0,7-3.1,7-10.5v-5.6C771,5.2,768.9,2.1,764,2.1
	 M372.2,26.5c49.4,0,76.4,32.8,76.4,97s-27,98.4-76.4,98.4c-49.4,0-76.1-34.2-76.1-98.4S322.8,26.5,372.2,26.5 M372.2,0
	c-70.1,0-107.9,41.9-107.9,123.5c0,81.6,37.8,124.9,107.9,124.9c70.4,0,108.3-43.3,108.3-124.9C480.5,41.9,442.6,0,372.2,0
	 M16.8,1.4H14C4.2,1.4,0,4.2,0,9.1v226.8c0,7.3,3.1,10.5,10.5,10.5h116.7c4.9,0,7-3.1,7-10.5v-5.6c0-7.3-2.1-10.5-7-10.5H30.8V9.1
	C30.8,4.2,26.6,1.4,16.8,1.4"/>
<path d="M956.1,470.7c-2.2,0-4.2,0.3-5,1.6l-18.8,27.6L914,472.4c-0.9-1.3-2.5-1.7-4.8-1.7h-1.2c-3.8,0-5.1,0.7-5.1,1.9
	c0,0.6,0.3,1.2,0.9,2l23.4,34.4v37.9c0,1.6,1.3,2.5,4.5,2.5h0.9c3.1,0,4.5-0.9,4.5-2.5v-37.6l23.5-34.8c0.4-0.8,0.9-1.5,0.9-2
	c0-1.2-1.2-1.8-4.4-1.9H956.1z M872.8,470.9h-52.4c-1.6,0-2.2,1-2.2,3.4v1.8c0,2.3,0.7,3.4,2.2,3.4h21.5v67.5c0,1.6,1.3,2.5,4.5,2.5
	h0.9c3.1,0,4.5-0.9,4.5-2.5v-67.5h21.1c1.6,0,2.2-1,2.2-3.4v-1.8C875.1,471.9,874.4,470.9,872.8,470.9 M680,470.7h-0.9
	c-3.1,0-4.5,0.9-4.5,2.5v72.7c0,2.3,1,3.3,3.3,3.3h37.2c1.6,0,2.2-1,2.2-3.3V544c0-2.3-0.7-3.3-2.2-3.3h-30.8v-67.5
	C684.5,471.6,683.1,470.7,680,470.7 M632.5,470.9h-39c-2.3,0-3.3,1-3.3,3.4v71.6c0,2.3,1,3.3,3.3,3.3h39.1c1.6,0,2.2-1,2.2-3.3V544
	c0-2.3-0.7-3.3-2.2-3.3h-32.7v-27.3h29.2c1.6,0,2.2-1,2.2-3.3v-1.8c0-2.4-0.7-3.4-2.2-3.4h-29.2v-25.5h32.5c1.6,0,2.2-1,2.2-3.4
	v-1.8C634.7,471.9,634,470.9,632.5,470.9 M514.1,479.4c14,0,25.2,8.4,25.2,30.6c0,22.4-11.2,30.6-25.2,30.6h-15.3v-61.3H514.1z
	 M514.8,470.9h-22.6c-2.4,0-3.4,1-3.4,3.4v71.6c0,2.3,1,3.3,3.4,3.3h22.6c19.2,0,34.6-10.1,34.6-39.1
	C549.4,481.1,534.1,470.9,514.8,470.9 M439.3,470.7h-0.9c-3.1,0-4.5,0.9-4.5,2.5v73.8c0,1.6,1.3,2.5,4.5,2.5h0.9
	c3.1,0,4.5-0.9,4.5-2.5v-73.8C443.7,471.6,442.4,470.7,439.3,470.7 M768.9,470.7H768c-3.1,0-4.5,0.9-4.5,2.5v73.8
	c0,1.6,1.3,2.5,4.5,2.5h0.9c3.1,0,4.5-0.9,4.5-2.5v-73.8C773.4,471.6,772.1,470.7,768.9,470.7 M392.7,470.9h-35.2
	c-2.4,0-3.4,1-3.4,3.4v72.7c0,1.6,1.3,2.5,4.5,2.5h0.9c3.1,0,4.5-0.9,4.5-2.5v-33.5h26.7c1.6,0,2.2-1,2.2-3.3v-1.8
	c0-2.4-0.7-3.4-2.2-3.4H364v-25.5h28.7c1.6,0,2.2-1,2.2-3.4v-1.8C395,471.9,394.3,470.9,392.7,470.9 M263.8,470.7h-0.7
	c-2.2,0-4.1,0.4-4.5,1.8l-13.5,54.8l-2.7,10.6c0,0-0.9-6.4-1.9-10.3l-13.9-55c-0.3-1.5-2.1-1.9-4.4-1.9h-1.8c-2.2,0-4,0.4-4.4,1.9
	l-13.5,54.6l-2.7,10.7c-0.1-0.3-1.2-7.4-2-10.4l-14.2-55c-0.3-1.3-2.2-1.8-4.5-1.8h-1.1c-3.4,0-4.8,0.8-4.8,1.9
	c0,0.4,0.2,1.1,0.3,1.6l19.1,73.5c0.3,1.3,2.2,1.8,4.5,1.8h4.6c2.2,0,4.1-0.4,4.5-1.8l12.2-45.5l2.3-14.5l2.4,14.5l12.2,45.5
	c0.3,1.3,2.2,1.8,4.5,1.8h4.6c2.2,0,4.1-0.4,4.5-1.8l19.3-73.5c0.1-0.5,0.3-1.3,0.3-1.6C268.6,471.4,267.2,470.7,263.8,470.7
	 M107.3,478.7c15.8,0,24.4,10.5,24.4,31.1c0,20.6-8.6,31.5-24.4,31.5c-15.8,0-24.3-11-24.3-31.5C83,489.3,91.5,478.7,107.3,478.7
	 M107.3,470.3c-22.4,0-34.4,13.4-34.4,39.6s12.1,40,34.4,40c22.5,0,34.6-13.9,34.6-40S129.7,470.3,107.3,470.3 M5.1,470.7H4.2
	c-3.1,0-4.5,0.9-4.5,2.5v72.7c0,2.3,1,3.3,3.4,3.3h37.2c1.6,0,2.2-1,2.2-3.3V544c0-2.3-0.7-3.3-2.2-3.3H9.5v-67.5
	C9.5,471.6,8.2,470.7,5.1,470.7"/>
</svg>
